<mxfile host="65bd71144e">
    <diagram id="r1-FoAM5eQuzF6EVqPkF" name="Index">
        <mxGraphModel dx="2349" dy="1923" grid="1" gridSize="10" guides="1" tooltips="1" connect="1" arrows="1" fold="1" page="1" pageScale="1" pageWidth="850" pageHeight="1100" math="0" shadow="0">
            <root>
                <mxCell id="0"/>
                <mxCell id="1" parent="0"/>
                <mxCell id="2" value="" style="strokeWidth=1;shadow=0;dashed=0;align=center;html=1;shape=mxgraph.mockup.containers.browserWindow;rSize=0;strokeColor=#666666;strokeColor2=#008cff;strokeColor3=#c4c4c4;mainText=,;recursiveResize=0;container=0;fillColor=#000000;" parent="1" vertex="1">
                    <mxGeometry x="-400" y="-370" width="1200" height="800" as="geometry"/>
                </mxCell>
                <mxCell id="3" value="Page 1" style="strokeWidth=1;shadow=0;dashed=0;align=center;html=1;shape=mxgraph.mockup.containers.anchor;fontSize=17;fontColor=#666666;align=left;" parent="1" vertex="1">
                    <mxGeometry x="-340" y="-358" width="110" height="26" as="geometry"/>
                </mxCell>
                <mxCell id="4" value="https://www.draw.io" style="strokeWidth=1;shadow=0;dashed=0;align=center;html=1;shape=mxgraph.mockup.containers.anchor;rSize=0;fontSize=17;fontColor=#666666;align=left;" parent="1" vertex="1">
                    <mxGeometry x="-270" y="-310" width="250" height="26" as="geometry"/>
                </mxCell>
                <mxCell id="5" value="" style="rounded=0;whiteSpace=wrap;html=1;fillColor=#6b6570;" parent="1" vertex="1">
                    <mxGeometry x="-400" y="-260" width="1200" height="60" as="geometry"/>
                </mxCell>
                <mxCell id="9" value="Sign In/Out" style="strokeWidth=1;shadow=0;dashed=0;align=center;html=1;shape=mxgraph.mockup.buttons.button;strokeColor=#666666;fontColor=#ffffff;mainText=;buttonStyle=round;fontSize=17;fontStyle=1;fillColor=#008cff;whiteSpace=wrap;" parent="1" vertex="1">
                    <mxGeometry x="570" y="-250" width="95" height="20" as="geometry"/>
                </mxCell>
                <mxCell id="16" value="Logo" style="rounded=1;whiteSpace=wrap;html=1;fillColor=#3399FF;" parent="1" vertex="1">
                    <mxGeometry x="-380" y="-250" width="350" height="40" as="geometry"/>
                </mxCell>
                <mxCell id="18" value="Pizza image" style="ellipse;whiteSpace=wrap;html=1;aspect=fixed;fillColor=#3399FF;" parent="1" vertex="1">
                    <mxGeometry x="-310" y="-90" width="80" height="80" as="geometry"/>
                </mxCell>
                <mxCell id="20" value="Add" style="strokeWidth=1;shadow=0;dashed=0;align=center;html=1;shape=mxgraph.mockup.buttons.button;strokeColor=#666666;fontColor=#ffffff;mainText=;buttonStyle=round;fontSize=17;fontStyle=1;fillColor=#008cff;whiteSpace=wrap;" parent="1" vertex="1">
                    <mxGeometry x="40" y="-65" width="118" height="30" as="geometry"/>
                </mxCell>
                <mxCell id="33" value="&lt;h1&gt;Pizza description&lt;/h1&gt;" style="text;html=1;strokeColor=none;fillColor=black;spacing=5;spacingTop=-20;whiteSpace=wrap;overflow=hidden;rounded=0;shadow=1;" parent="1" vertex="1">
                    <mxGeometry x="-200" y="-70" width="220" height="60" as="geometry"/>
                </mxCell>
                <mxCell id="36" value="Pizza image" style="ellipse;whiteSpace=wrap;html=1;aspect=fixed;fillColor=#3399FF;" parent="1" vertex="1">
                    <mxGeometry x="-310" y="80" width="80" height="80" as="geometry"/>
                </mxCell>
                <mxCell id="37" value="Add" style="strokeWidth=1;shadow=0;dashed=0;align=center;html=1;shape=mxgraph.mockup.buttons.button;strokeColor=#666666;fontColor=#ffffff;mainText=;buttonStyle=round;fontSize=17;fontStyle=1;fillColor=#008cff;whiteSpace=wrap;" parent="1" vertex="1">
                    <mxGeometry x="40" y="105" width="118" height="30" as="geometry"/>
                </mxCell>
                <mxCell id="39" value="Pizza image" style="ellipse;whiteSpace=wrap;html=1;aspect=fixed;fillColor=#3399FF;" parent="1" vertex="1">
                    <mxGeometry x="-310" y="270" width="80" height="80" as="geometry"/>
                </mxCell>
                <mxCell id="40" value="Add" style="strokeWidth=1;shadow=0;dashed=0;align=center;html=1;shape=mxgraph.mockup.buttons.button;strokeColor=#666666;fontColor=#ffffff;mainText=;buttonStyle=round;fontSize=17;fontStyle=1;fillColor=#008cff;whiteSpace=wrap;" parent="1" vertex="1">
                    <mxGeometry x="40" y="295" width="118" height="30" as="geometry"/>
                </mxCell>
                <mxCell id="53" value="Register" style="shape=rectangle;strokeColor=none;fillColor=none;linkText=;fontSize=17;fontColor=#0000ff;fontStyle=4;html=1;align=center;" parent="1" vertex="1">
                    <mxGeometry x="542.5" y="-230" width="150" height="30" as="geometry"/>
                </mxCell>
                <mxCell id="54" value="" style="image;html=1;image=img/lib/clip_art/finance/Shopping_Cart_128x128.png" parent="1" vertex="1">
                    <mxGeometry x="730" y="-255" width="50" height="50" as="geometry"/>
                </mxCell>
                <mxCell id="oNnaRQol8yMuJEyoPdZe-54" value="&lt;h1&gt;Pizza description&lt;/h1&gt;" style="text;html=1;strokeColor=none;fillColor=black;spacing=5;spacingTop=-20;whiteSpace=wrap;overflow=hidden;rounded=0;shadow=1;" parent="1" vertex="1">
                    <mxGeometry x="-200" y="90" width="220" height="60" as="geometry"/>
                </mxCell>
                <mxCell id="oNnaRQol8yMuJEyoPdZe-55" value="&lt;h1&gt;Pizza description&lt;/h1&gt;" style="text;html=1;strokeColor=none;fillColor=black;spacing=5;spacingTop=-20;whiteSpace=wrap;overflow=hidden;rounded=0;shadow=1;" parent="1" vertex="1">
                    <mxGeometry x="-200" y="280" width="220" height="60" as="geometry"/>
                </mxCell>
            </root>
        </mxGraphModel>
    </diagram>
    <diagram name="Index" id="_NyE8r2Gc4pZoEEc98S5">
        <mxGraphModel dx="2469" dy="1923" grid="1" gridSize="10" guides="1" tooltips="1" connect="1" arrows="1" fold="1" page="1" pageScale="1" pageWidth="850" pageHeight="1100" math="0" shadow="0">
            <root>
                <mxCell id="0"/>
                <mxCell id="1" parent="0"/>
                <mxCell id="2" value="" style="strokeWidth=1;shadow=0;dashed=0;align=center;html=1;shape=mxgraph.mockup.containers.browserWindow;rSize=0;strokeColor=#666666;strokeColor2=#008cff;strokeColor3=#c4c4c4;mainText=,;recursiveResize=0;container=0;fillColor=#000000;" parent="1" vertex="1">
                    <mxGeometry x="-400" y="-370" width="1200" height="800" as="geometry"/>
                </mxCell>
                <mxCell id="3" value="Page 1" style="strokeWidth=1;shadow=0;dashed=0;align=center;html=1;shape=mxgraph.mockup.containers.anchor;fontSize=17;fontColor=#666666;align=left;" parent="1" vertex="1">
                    <mxGeometry x="-340" y="-358" width="110" height="26" as="geometry"/>
                </mxCell>
                <mxCell id="4" value="https://www.draw.io" style="strokeWidth=1;shadow=0;dashed=0;align=center;html=1;shape=mxgraph.mockup.containers.anchor;rSize=0;fontSize=17;fontColor=#666666;align=left;" parent="1" vertex="1">
                    <mxGeometry x="-270" y="-310" width="250" height="26" as="geometry"/>
                </mxCell>
                <mxCell id="5" value="" style="rounded=0;whiteSpace=wrap;html=1;fillColor=#6b6570;" parent="1" vertex="1">
                    <mxGeometry x="-400" y="-260" width="1200" height="60" as="geometry"/>
                </mxCell>
                <mxCell id="9" value="Sign In/Out" style="strokeWidth=1;shadow=0;dashed=0;align=center;html=1;shape=mxgraph.mockup.buttons.button;strokeColor=#666666;fontColor=#ffffff;mainText=;buttonStyle=round;fontSize=17;fontStyle=1;fillColor=#008cff;whiteSpace=wrap;" parent="1" vertex="1">
                    <mxGeometry x="570" y="-250" width="95" height="20" as="geometry"/>
                </mxCell>
                <mxCell id="16" value="Logo" style="rounded=1;whiteSpace=wrap;html=1;fillColor=#3399FF;" parent="1" vertex="1">
                    <mxGeometry x="-380" y="-250" width="350" height="40" as="geometry"/>
                </mxCell>
                <mxCell id="18" value="Pizza image" style="ellipse;whiteSpace=wrap;html=1;aspect=fixed;fillColor=#3399FF;" parent="1" vertex="1">
                    <mxGeometry x="-310" y="-90" width="80" height="80" as="geometry"/>
                </mxCell>
                <mxCell id="20" value="Add" style="strokeWidth=1;shadow=0;dashed=0;align=center;html=1;shape=mxgraph.mockup.buttons.button;strokeColor=#666666;fontColor=#ffffff;mainText=;buttonStyle=round;fontSize=17;fontStyle=1;fillColor=#008cff;whiteSpace=wrap;" parent="1" vertex="1">
                    <mxGeometry x="40" y="-65" width="118" height="30" as="geometry"/>
                </mxCell>
                <mxCell id="33" value="&lt;h1&gt;Pizza description&lt;/h1&gt;" style="text;html=1;strokeColor=none;fillColor=black;spacing=5;spacingTop=-20;whiteSpace=wrap;overflow=hidden;rounded=0;shadow=1;" parent="1" vertex="1">
                    <mxGeometry x="-200" y="-70" width="220" height="60" as="geometry"/>
                </mxCell>
                <mxCell id="36" value="Pizza image" style="ellipse;whiteSpace=wrap;html=1;aspect=fixed;fillColor=#3399FF;" parent="1" vertex="1">
                    <mxGeometry x="-310" y="80" width="80" height="80" as="geometry"/>
                </mxCell>
                <mxCell id="37" value="Add" style="strokeWidth=1;shadow=0;dashed=0;align=center;html=1;shape=mxgraph.mockup.buttons.button;strokeColor=#666666;fontColor=#ffffff;mainText=;buttonStyle=round;fontSize=17;fontStyle=1;fillColor=#008cff;whiteSpace=wrap;" parent="1" vertex="1">
                    <mxGeometry x="40" y="105" width="118" height="30" as="geometry"/>
                </mxCell>
                <mxCell id="39" value="Pizza image" style="ellipse;whiteSpace=wrap;html=1;aspect=fixed;fillColor=#3399FF;" parent="1" vertex="1">
                    <mxGeometry x="-310" y="270" width="80" height="80" as="geometry"/>
                </mxCell>
                <mxCell id="40" value="Add" style="strokeWidth=1;shadow=0;dashed=0;align=center;html=1;shape=mxgraph.mockup.buttons.button;strokeColor=#666666;fontColor=#ffffff;mainText=;buttonStyle=round;fontSize=17;fontStyle=1;fillColor=#008cff;whiteSpace=wrap;" parent="1" vertex="1">
                    <mxGeometry x="40" y="295" width="118" height="30" as="geometry"/>
                </mxCell>
                <mxCell id="53" value="Register" style="shape=rectangle;strokeColor=none;fillColor=none;linkText=;fontSize=17;fontColor=#0000ff;fontStyle=4;html=1;align=center;" vertex="1" parent="1">
                    <mxGeometry x="542.5" y="-230" width="150" height="30" as="geometry"/>
                </mxCell>
                <mxCell id="54" value="" style="image;html=1;image=img/lib/clip_art/finance/Shopping_Cart_128x128.png" vertex="1" parent="1">
                    <mxGeometry x="730" y="-255" width="50" height="50" as="geometry"/>
                </mxCell>
                <mxCell id="oNnaRQol8yMuJEyoPdZe-54" value="&lt;h1&gt;Pizza description&lt;/h1&gt;" style="text;html=1;strokeColor=none;fillColor=black;spacing=5;spacingTop=-20;whiteSpace=wrap;overflow=hidden;rounded=0;shadow=1;" vertex="1" parent="1">
                    <mxGeometry x="-200" y="90" width="220" height="60" as="geometry"/>
                </mxCell>
                <mxCell id="oNnaRQol8yMuJEyoPdZe-55" value="&lt;h1&gt;Pizza description&lt;/h1&gt;" style="text;html=1;strokeColor=none;fillColor=black;spacing=5;spacingTop=-20;whiteSpace=wrap;overflow=hidden;rounded=0;shadow=1;" vertex="1" parent="1">
                    <mxGeometry x="-200" y="280" width="220" height="60" as="geometry"/>
                </mxCell>
            </root>
        </mxGraphModel>
    </diagram>
    <diagram name="Sign In" id="NrY5NYkK1Bsa6jJ3j6qF">
        <mxGraphModel dx="1974" dy="1717" grid="1" gridSize="10" guides="1" tooltips="1" connect="1" arrows="1" fold="1" page="1" pageScale="1" pageWidth="850" pageHeight="1100" math="0" shadow="0">
            <root>
                <mxCell id="jX85Kw0TbA-bxUbhfbJ2-0"/>
                <mxCell id="jX85Kw0TbA-bxUbhfbJ2-1" parent="jX85Kw0TbA-bxUbhfbJ2-0"/>
                <mxCell id="jX85Kw0TbA-bxUbhfbJ2-2" value="" style="strokeWidth=1;shadow=0;dashed=0;align=center;html=1;shape=mxgraph.mockup.containers.browserWindow;rSize=0;strokeColor=#666666;strokeColor2=#008cff;strokeColor3=#c4c4c4;mainText=,;recursiveResize=0;container=0;fillColor=#000000;" parent="jX85Kw0TbA-bxUbhfbJ2-1" vertex="1">
                    <mxGeometry x="-400" y="-370" width="1200" height="800" as="geometry"/>
                </mxCell>
                <mxCell id="jX85Kw0TbA-bxUbhfbJ2-3" value="Page 1" style="strokeWidth=1;shadow=0;dashed=0;align=center;html=1;shape=mxgraph.mockup.containers.anchor;fontSize=17;fontColor=#666666;align=left;" parent="jX85Kw0TbA-bxUbhfbJ2-1" vertex="1">
                    <mxGeometry x="-340" y="-358" width="110" height="26" as="geometry"/>
                </mxCell>
                <mxCell id="jX85Kw0TbA-bxUbhfbJ2-4" value="https://www.draw.io" style="strokeWidth=1;shadow=0;dashed=0;align=center;html=1;shape=mxgraph.mockup.containers.anchor;rSize=0;fontSize=17;fontColor=#666666;align=left;" parent="jX85Kw0TbA-bxUbhfbJ2-1" vertex="1">
                    <mxGeometry x="-270" y="-310" width="250" height="26" as="geometry"/>
                </mxCell>
                <mxCell id="jX85Kw0TbA-bxUbhfbJ2-5" value="" style="rounded=0;whiteSpace=wrap;html=1;fillColor=#6b6570;" parent="jX85Kw0TbA-bxUbhfbJ2-1" vertex="1">
                    <mxGeometry x="-400" y="-260" width="1200" height="60" as="geometry"/>
                </mxCell>
                <mxCell id="jX85Kw0TbA-bxUbhfbJ2-7" value="Logo" style="rounded=1;whiteSpace=wrap;html=1;fillColor=#3399FF;" parent="jX85Kw0TbA-bxUbhfbJ2-1" vertex="1">
                    <mxGeometry x="-380" y="-250" width="350" height="40" as="geometry"/>
                </mxCell>
                <mxCell id="uriJi8vmd3a0PL1YAelZ-0" value="" style="aspect=fixed;perimeter=ellipsePerimeter;html=1;align=center;shadow=0;dashed=0;spacingTop=3;image;image=img/lib/active_directory/secure.svg;" parent="jX85Kw0TbA-bxUbhfbJ2-1" vertex="1">
                    <mxGeometry x="-280" y="-140" width="32" height="50" as="geometry"/>
                </mxCell>
                <mxCell id="uriJi8vmd3a0PL1YAelZ-6" value="&lt;font style=&quot;font-size: 24px&quot;&gt;EMAIL ADDRESS&lt;/font&gt;" style="text;html=1;strokeColor=none;fillColor=none;align=left;verticalAlign=middle;whiteSpace=wrap;rounded=0;" parent="jX85Kw0TbA-bxUbhfbJ2-1" vertex="1">
                    <mxGeometry x="-170" width="220" height="70" as="geometry"/>
                </mxCell>
                <mxCell id="uriJi8vmd3a0PL1YAelZ-7" value="&lt;span style=&quot;font-size: 24px&quot;&gt;PASSWORD&lt;/span&gt;" style="text;html=1;strokeColor=none;fillColor=none;align=left;verticalAlign=middle;whiteSpace=wrap;rounded=0;" parent="jX85Kw0TbA-bxUbhfbJ2-1" vertex="1">
                    <mxGeometry x="-170" y="130" width="220" height="70" as="geometry"/>
                </mxCell>
                <mxCell id="uriJi8vmd3a0PL1YAelZ-8" value="&lt;font style=&quot;font-size: 36px&quot;&gt;&lt;b&gt;Sign In&lt;/b&gt;&lt;/font&gt;" style="text;html=1;strokeColor=none;fillColor=none;align=left;verticalAlign=middle;whiteSpace=wrap;rounded=0;" parent="jX85Kw0TbA-bxUbhfbJ2-1" vertex="1">
                    <mxGeometry x="-210" y="-150" width="220" height="70" as="geometry"/>
                </mxCell>
                <mxCell id="uriJi8vmd3a0PL1YAelZ-9" value="" style="strokeWidth=1;shadow=0;dashed=0;align=center;html=1;shape=mxgraph.mockup.text.textBox;fontColor=#666666;align=left;fontSize=17;spacingLeft=4;spacingTop=-3;strokeColor=#666666;mainText=" parent="jX85Kw0TbA-bxUbhfbJ2-1" vertex="1">
                    <mxGeometry x="-170" y="60" width="300" height="30" as="geometry"/>
                </mxCell>
                <mxCell id="uriJi8vmd3a0PL1YAelZ-10" value="" style="strokeWidth=1;shadow=0;dashed=0;align=center;html=1;shape=mxgraph.mockup.text.textBox;fontColor=#666666;align=left;fontSize=17;spacingLeft=4;spacingTop=-3;strokeColor=#666666;mainText=" parent="jX85Kw0TbA-bxUbhfbJ2-1" vertex="1">
                    <mxGeometry x="-170" y="190" width="300" height="30" as="geometry"/>
                </mxCell>
                <mxCell id="uriJi8vmd3a0PL1YAelZ-11" value="&lt;font style=&quot;font-size: 24px&quot;&gt;Sign In&lt;/font&gt;" style="rounded=1;html=1;shadow=0;dashed=0;whiteSpace=wrap;fontSize=10;fillColor=#E6E6E6;align=center;strokeColor=#E6E6E6;fontColor=#333333;" parent="jX85Kw0TbA-bxUbhfbJ2-1" vertex="1">
                    <mxGeometry x="-170" y="260" width="220" height="50" as="geometry"/>
                </mxCell>
                <mxCell id="uriJi8vmd3a0PL1YAelZ-13" value="" style="line;strokeWidth=2;html=1;fontSize=36;" parent="jX85Kw0TbA-bxUbhfbJ2-1" vertex="1">
                    <mxGeometry x="-285" y="-80" width="955" height="10" as="geometry"/>
                </mxCell>
            </root>
        </mxGraphModel>
    </diagram>
    <diagram name="Register" id="-NOit7H7GjGMhU2boTUZ">
        <mxGraphModel dx="2349" dy="1923" grid="1" gridSize="10" guides="1" tooltips="1" connect="1" arrows="1" fold="1" page="1" pageScale="1" pageWidth="850" pageHeight="1100" math="0" shadow="0">
            <root>
                <mxCell id="QkkdcEkT8AMZcXuNcrMR-0"/>
                <mxCell id="QkkdcEkT8AMZcXuNcrMR-1" parent="QkkdcEkT8AMZcXuNcrMR-0"/>
                <mxCell id="QkkdcEkT8AMZcXuNcrMR-2" value="" style="strokeWidth=1;shadow=0;dashed=0;align=center;html=1;shape=mxgraph.mockup.containers.browserWindow;rSize=0;strokeColor=#666666;strokeColor2=#008cff;strokeColor3=#c4c4c4;mainText=,;recursiveResize=0;container=0;fillColor=#000000;" vertex="1" parent="QkkdcEkT8AMZcXuNcrMR-1">
                    <mxGeometry x="-400" y="-370" width="1200" height="920" as="geometry"/>
                </mxCell>
                <mxCell id="QkkdcEkT8AMZcXuNcrMR-3" value="Page 1" style="strokeWidth=1;shadow=0;dashed=0;align=center;html=1;shape=mxgraph.mockup.containers.anchor;fontSize=17;fontColor=#666666;align=left;" vertex="1" parent="QkkdcEkT8AMZcXuNcrMR-1">
                    <mxGeometry x="-340" y="-358" width="110" height="26" as="geometry"/>
                </mxCell>
                <mxCell id="QkkdcEkT8AMZcXuNcrMR-4" value="https://www.draw.io" style="strokeWidth=1;shadow=0;dashed=0;align=center;html=1;shape=mxgraph.mockup.containers.anchor;rSize=0;fontSize=17;fontColor=#666666;align=left;" vertex="1" parent="QkkdcEkT8AMZcXuNcrMR-1">
                    <mxGeometry x="-270" y="-310" width="250" height="26" as="geometry"/>
                </mxCell>
                <mxCell id="QkkdcEkT8AMZcXuNcrMR-5" value="" style="rounded=0;whiteSpace=wrap;html=1;fillColor=#6b6570;" vertex="1" parent="QkkdcEkT8AMZcXuNcrMR-1">
                    <mxGeometry x="-400" y="-260" width="1200" height="60" as="geometry"/>
                </mxCell>
                <mxCell id="QkkdcEkT8AMZcXuNcrMR-6" value="Logo" style="rounded=1;whiteSpace=wrap;html=1;fillColor=#3399FF;" vertex="1" parent="QkkdcEkT8AMZcXuNcrMR-1">
                    <mxGeometry x="-380" y="-250" width="350" height="40" as="geometry"/>
                </mxCell>
                <mxCell id="QkkdcEkT8AMZcXuNcrMR-7" value="" style="aspect=fixed;perimeter=ellipsePerimeter;html=1;align=center;shadow=0;dashed=0;spacingTop=3;image;image=img/lib/active_directory/secure.svg;" vertex="1" parent="QkkdcEkT8AMZcXuNcrMR-1">
                    <mxGeometry x="-330" y="-170" width="32" height="50" as="geometry"/>
                </mxCell>
                <mxCell id="QkkdcEkT8AMZcXuNcrMR-8" value="&lt;span style=&quot;font-size: 18px&quot;&gt;First Name&lt;/span&gt;" style="text;html=1;strokeColor=none;fillColor=none;align=left;verticalAlign=middle;whiteSpace=wrap;rounded=0;" vertex="1" parent="QkkdcEkT8AMZcXuNcrMR-1">
                    <mxGeometry x="-330" y="-57" width="220" height="30" as="geometry"/>
                </mxCell>
                <mxCell id="QkkdcEkT8AMZcXuNcrMR-10" value="&lt;span style=&quot;font-size: 36px&quot;&gt;&lt;b&gt;New customer&lt;/b&gt;&lt;/span&gt;" style="text;html=1;strokeColor=none;fillColor=none;align=left;verticalAlign=middle;whiteSpace=wrap;rounded=0;" vertex="1" parent="QkkdcEkT8AMZcXuNcrMR-1">
                    <mxGeometry x="-260" y="-180" width="290" height="70" as="geometry"/>
                </mxCell>
                <mxCell id="QkkdcEkT8AMZcXuNcrMR-11" value="compulsary" style="strokeWidth=1;shadow=0;dashed=0;align=center;html=1;shape=mxgraph.mockup.text.textBox;fontColor=#666666;align=left;fontSize=17;spacingLeft=4;spacingTop=-3;strokeColor=#666666;mainText=" vertex="1" parent="QkkdcEkT8AMZcXuNcrMR-1">
                    <mxGeometry x="-170" y="-57" width="300" height="30" as="geometry"/>
                </mxCell>
                <mxCell id="QkkdcEkT8AMZcXuNcrMR-14" value="" style="line;strokeWidth=2;html=1;fontSize=36;" vertex="1" parent="QkkdcEkT8AMZcXuNcrMR-1">
                    <mxGeometry x="-340" y="-110" width="955" height="10" as="geometry"/>
                </mxCell>
                <mxCell id="QkkdcEkT8AMZcXuNcrMR-15" value="&lt;span style=&quot;font-size: 18px&quot;&gt;Middle Name&lt;/span&gt;" style="text;html=1;strokeColor=none;fillColor=none;align=left;verticalAlign=middle;whiteSpace=wrap;rounded=0;" vertex="1" parent="QkkdcEkT8AMZcXuNcrMR-1">
                    <mxGeometry x="-330" y="-15" width="220" height="30" as="geometry"/>
                </mxCell>
                <mxCell id="QkkdcEkT8AMZcXuNcrMR-16" value="" style="strokeWidth=1;shadow=0;dashed=0;align=center;html=1;shape=mxgraph.mockup.text.textBox;fontColor=#666666;align=left;fontSize=17;spacingLeft=4;spacingTop=-3;strokeColor=#666666;mainText=" vertex="1" parent="QkkdcEkT8AMZcXuNcrMR-1">
                    <mxGeometry x="-170" y="-15" width="300" height="30" as="geometry"/>
                </mxCell>
                <mxCell id="QkkdcEkT8AMZcXuNcrMR-17" value="&lt;span style=&quot;font-size: 18px&quot;&gt;Surname&lt;/span&gt;" style="text;html=1;strokeColor=none;fillColor=none;align=left;verticalAlign=middle;whiteSpace=wrap;rounded=0;" vertex="1" parent="QkkdcEkT8AMZcXuNcrMR-1">
                    <mxGeometry x="-330" y="30" width="220" height="30" as="geometry"/>
                </mxCell>
                <mxCell id="QkkdcEkT8AMZcXuNcrMR-18" value="compulsary" style="strokeWidth=1;shadow=0;dashed=0;align=center;html=1;shape=mxgraph.mockup.text.textBox;fontColor=#666666;align=left;fontSize=17;spacingLeft=4;spacingTop=-3;strokeColor=#666666;mainText=" vertex="1" parent="QkkdcEkT8AMZcXuNcrMR-1">
                    <mxGeometry x="-170" y="30" width="300" height="30" as="geometry"/>
                </mxCell>
                <mxCell id="QkkdcEkT8AMZcXuNcrMR-19" value="&lt;span style=&quot;font-size: 18px&quot;&gt;House Number&lt;/span&gt;" style="text;html=1;strokeColor=none;fillColor=none;align=left;verticalAlign=middle;whiteSpace=wrap;rounded=0;" vertex="1" parent="QkkdcEkT8AMZcXuNcrMR-1">
                    <mxGeometry x="-330" y="100" width="220" height="30" as="geometry"/>
                </mxCell>
                <mxCell id="QkkdcEkT8AMZcXuNcrMR-20" value="compulsary" style="strokeWidth=1;shadow=0;dashed=0;align=center;html=1;shape=mxgraph.mockup.text.textBox;fontColor=#666666;align=left;fontSize=17;spacingLeft=4;spacingTop=-3;strokeColor=#666666;mainText=" vertex="1" parent="QkkdcEkT8AMZcXuNcrMR-1">
                    <mxGeometry x="-170" y="100" width="300" height="30" as="geometry"/>
                </mxCell>
                <mxCell id="QkkdcEkT8AMZcXuNcrMR-21" value="&lt;span style=&quot;font-size: 18px&quot;&gt;Street Name&lt;/span&gt;" style="text;html=1;strokeColor=none;fillColor=none;align=left;verticalAlign=middle;whiteSpace=wrap;rounded=0;" vertex="1" parent="QkkdcEkT8AMZcXuNcrMR-1">
                    <mxGeometry x="-330" y="150" width="220" height="30" as="geometry"/>
                </mxCell>
                <mxCell id="QkkdcEkT8AMZcXuNcrMR-22" value="compulsary" style="strokeWidth=1;shadow=0;dashed=0;align=center;html=1;shape=mxgraph.mockup.text.textBox;fontColor=#666666;align=left;fontSize=17;spacingLeft=4;spacingTop=-3;strokeColor=#666666;mainText=" vertex="1" parent="QkkdcEkT8AMZcXuNcrMR-1">
                    <mxGeometry x="-170" y="150" width="300" height="30" as="geometry"/>
                </mxCell>
                <mxCell id="QkkdcEkT8AMZcXuNcrMR-23" value="&lt;span style=&quot;font-size: 18px&quot;&gt;City&lt;/span&gt;" style="text;html=1;strokeColor=none;fillColor=none;align=left;verticalAlign=middle;whiteSpace=wrap;rounded=0;" vertex="1" parent="QkkdcEkT8AMZcXuNcrMR-1">
                    <mxGeometry x="-330" y="200" width="220" height="30" as="geometry"/>
                </mxCell>
                <mxCell id="QkkdcEkT8AMZcXuNcrMR-24" value="compulsary" style="strokeWidth=1;shadow=0;dashed=0;align=center;html=1;shape=mxgraph.mockup.text.textBox;fontColor=#666666;align=left;fontSize=17;spacingLeft=4;spacingTop=-3;strokeColor=#666666;mainText=" vertex="1" parent="QkkdcEkT8AMZcXuNcrMR-1">
                    <mxGeometry x="-170" y="200" width="300" height="30" as="geometry"/>
                </mxCell>
                <mxCell id="QkkdcEkT8AMZcXuNcrMR-25" value="&lt;span style=&quot;font-size: 18px&quot;&gt;Postcode&lt;/span&gt;" style="text;html=1;strokeColor=none;fillColor=none;align=left;verticalAlign=middle;whiteSpace=wrap;rounded=0;" vertex="1" parent="QkkdcEkT8AMZcXuNcrMR-1">
                    <mxGeometry x="-330" y="242" width="220" height="30" as="geometry"/>
                </mxCell>
                <mxCell id="QkkdcEkT8AMZcXuNcrMR-26" value="compulsary" style="strokeWidth=1;shadow=0;dashed=0;align=center;html=1;shape=mxgraph.mockup.text.textBox;fontColor=#666666;align=left;fontSize=17;spacingLeft=4;spacingTop=-3;strokeColor=#666666;mainText=" vertex="1" parent="QkkdcEkT8AMZcXuNcrMR-1">
                    <mxGeometry x="-170" y="242" width="300" height="30" as="geometry"/>
                </mxCell>
                <mxCell id="QkkdcEkT8AMZcXuNcrMR-27" value="&lt;span style=&quot;font-size: 18px&quot;&gt;Email address&lt;/span&gt;" style="text;html=1;strokeColor=none;fillColor=none;align=left;verticalAlign=middle;whiteSpace=wrap;rounded=0;" vertex="1" parent="QkkdcEkT8AMZcXuNcrMR-1">
                    <mxGeometry x="-330" y="310" width="220" height="30" as="geometry"/>
                </mxCell>
                <mxCell id="QkkdcEkT8AMZcXuNcrMR-28" value="compulsary" style="strokeWidth=1;shadow=0;dashed=0;align=center;html=1;shape=mxgraph.mockup.text.textBox;fontColor=#666666;align=left;fontSize=17;spacingLeft=4;spacingTop=-3;strokeColor=#666666;mainText=" vertex="1" parent="QkkdcEkT8AMZcXuNcrMR-1">
                    <mxGeometry x="-170" y="310" width="300" height="30" as="geometry"/>
                </mxCell>
                <mxCell id="QkkdcEkT8AMZcXuNcrMR-29" value="&lt;span style=&quot;font-size: 18px&quot;&gt;Password&lt;/span&gt;" style="text;html=1;strokeColor=none;fillColor=none;align=left;verticalAlign=middle;whiteSpace=wrap;rounded=0;" vertex="1" parent="QkkdcEkT8AMZcXuNcrMR-1">
                    <mxGeometry x="-330" y="360" width="220" height="30" as="geometry"/>
                </mxCell>
                <mxCell id="QkkdcEkT8AMZcXuNcrMR-30" value="Password" style="strokeWidth=1;shadow=0;dashed=0;align=center;html=1;shape=mxgraph.mockup.text.textBox;fontColor=#666666;align=left;fontSize=17;spacingLeft=4;spacingTop=-3;strokeColor=#666666;mainText=" vertex="1" parent="QkkdcEkT8AMZcXuNcrMR-1">
                    <mxGeometry x="-170" y="360" width="300" height="30" as="geometry"/>
                </mxCell>
                <mxCell id="QkkdcEkT8AMZcXuNcrMR-32" value="Retype password" style="strokeWidth=1;shadow=0;dashed=0;align=center;html=1;shape=mxgraph.mockup.text.textBox;fontColor=#666666;align=left;fontSize=17;spacingLeft=4;spacingTop=-3;strokeColor=#666666;mainText=" vertex="1" parent="QkkdcEkT8AMZcXuNcrMR-1">
                    <mxGeometry x="-170" y="410" width="300" height="30" as="geometry"/>
                </mxCell>
                <mxCell id="VUATNmjZVYnjZPtUkr3d-0" value="&lt;font style=&quot;font-size: 24px&quot;&gt;Register&lt;/font&gt;" style="rounded=1;html=1;shadow=0;dashed=0;whiteSpace=wrap;fontSize=10;fillColor=#E6E6E6;align=center;strokeColor=#E6E6E6;fontColor=#333333;" vertex="1" parent="QkkdcEkT8AMZcXuNcrMR-1">
                    <mxGeometry x="-90" y="480" width="220" height="50" as="geometry"/>
                </mxCell>
            </root>
        </mxGraphModel>
    </diagram>
    <diagram name="View Basket" id="J-a17h-5jM1y6SSj2xqr">
        <mxGraphModel dx="2469" dy="1923" grid="1" gridSize="10" guides="1" tooltips="1" connect="1" arrows="1" fold="1" page="1" pageScale="1" pageWidth="850" pageHeight="1100" math="0" shadow="0">
            <root>
                <mxCell id="_Pdhp6oRFReHe-XerzVZ-0"/>
                <mxCell id="_Pdhp6oRFReHe-XerzVZ-1" parent="_Pdhp6oRFReHe-XerzVZ-0"/>
                <mxCell id="_Pdhp6oRFReHe-XerzVZ-2" value="" style="strokeWidth=1;shadow=0;dashed=0;align=center;html=1;shape=mxgraph.mockup.containers.browserWindow;rSize=0;strokeColor=#666666;strokeColor2=#008cff;strokeColor3=#c4c4c4;mainText=,;recursiveResize=0;container=0;fillColor=#000000;" vertex="1" parent="_Pdhp6oRFReHe-XerzVZ-1">
                    <mxGeometry x="-400" y="-370" width="1200" height="920" as="geometry"/>
                </mxCell>
                <mxCell id="_Pdhp6oRFReHe-XerzVZ-3" value="Page 1" style="strokeWidth=1;shadow=0;dashed=0;align=center;html=1;shape=mxgraph.mockup.containers.anchor;fontSize=17;fontColor=#666666;align=left;" vertex="1" parent="_Pdhp6oRFReHe-XerzVZ-1">
                    <mxGeometry x="-340" y="-358" width="110" height="26" as="geometry"/>
                </mxCell>
                <mxCell id="_Pdhp6oRFReHe-XerzVZ-4" value="https://www.draw.io" style="strokeWidth=1;shadow=0;dashed=0;align=center;html=1;shape=mxgraph.mockup.containers.anchor;rSize=0;fontSize=17;fontColor=#666666;align=left;" vertex="1" parent="_Pdhp6oRFReHe-XerzVZ-1">
                    <mxGeometry x="-270" y="-310" width="250" height="26" as="geometry"/>
                </mxCell>
                <mxCell id="_Pdhp6oRFReHe-XerzVZ-5" value="" style="rounded=0;whiteSpace=wrap;html=1;fillColor=#6b6570;" vertex="1" parent="_Pdhp6oRFReHe-XerzVZ-1">
                    <mxGeometry x="-400" y="-260" width="1200" height="60" as="geometry"/>
                </mxCell>
                <mxCell id="_Pdhp6oRFReHe-XerzVZ-6" value="Logo" style="rounded=1;whiteSpace=wrap;html=1;fillColor=#3399FF;" vertex="1" parent="_Pdhp6oRFReHe-XerzVZ-1">
                    <mxGeometry x="-380" y="-250" width="350" height="40" as="geometry"/>
                </mxCell>
                <mxCell id="_Pdhp6oRFReHe-XerzVZ-9" value="&lt;span style=&quot;font-size: 36px&quot;&gt;&lt;b&gt;Your cart&lt;/b&gt;&lt;/span&gt;" style="text;html=1;strokeColor=none;fillColor=none;align=left;verticalAlign=middle;whiteSpace=wrap;rounded=0;" vertex="1" parent="_Pdhp6oRFReHe-XerzVZ-1">
                    <mxGeometry x="-260" y="-180" width="290" height="70" as="geometry"/>
                </mxCell>
                <mxCell id="_Pdhp6oRFReHe-XerzVZ-11" value="" style="line;strokeWidth=2;html=1;fontSize=36;" vertex="1" parent="_Pdhp6oRFReHe-XerzVZ-1">
                    <mxGeometry x="-340" y="-110" width="1000" height="10" as="geometry"/>
                </mxCell>
                <mxCell id="_Pdhp6oRFReHe-XerzVZ-14" value="&lt;span style=&quot;font-size: 18px&quot;&gt;Vegan Vegi Supreme&lt;/span&gt;" style="text;html=1;strokeColor=none;fillColor=none;align=left;verticalAlign=middle;whiteSpace=wrap;rounded=0;" vertex="1" parent="_Pdhp6oRFReHe-XerzVZ-1">
                    <mxGeometry x="-200" y="-15" width="410" height="30" as="geometry"/>
                </mxCell>
                <mxCell id="_Pdhp6oRFReHe-XerzVZ-29" value="&lt;font style=&quot;font-size: 24px&quot;&gt;Register&lt;/font&gt;" style="rounded=1;html=1;shadow=0;dashed=0;whiteSpace=wrap;fontSize=10;fillColor=#E6E6E6;align=center;strokeColor=#E6E6E6;fontColor=#333333;" vertex="1" parent="_Pdhp6oRFReHe-XerzVZ-1">
                    <mxGeometry x="-90" y="480" width="220" height="50" as="geometry"/>
                </mxCell>
                <mxCell id="CfE6q0CcxsGCjOIaxKRm-0" value="" style="image;html=1;image=img/lib/clip_art/finance/Shopping_Cart_128x128.png" vertex="1" parent="_Pdhp6oRFReHe-XerzVZ-1">
                    <mxGeometry x="-340" y="-180" width="60" height="65" as="geometry"/>
                </mxCell>
                <mxCell id="CfE6q0CcxsGCjOIaxKRm-1" value="" style="ellipse;whiteSpace=wrap;html=1;aspect=fixed;fontSize=18;" vertex="1" parent="_Pdhp6oRFReHe-XerzVZ-1">
                    <mxGeometry x="-320" y="-40" width="80" height="80" as="geometry"/>
                </mxCell>
                <mxCell id="SLljtoW1Gm-KegeCTVSv-0" value="Remove" style="shape=rectangle;strokeColor=none;fillColor=none;linkText=;fontSize=17;fontColor=#0000ff;fontStyle=4;html=1;align=center;" vertex="1" parent="_Pdhp6oRFReHe-XerzVZ-1">
                    <mxGeometry x="220" y="-15" width="150" height="30" as="geometry"/>
                </mxCell>
                <mxCell id="SLljtoW1Gm-KegeCTVSv-1" value="&lt;span style=&quot;font-size: 18px&quot;&gt;Classic Margherita&lt;/span&gt;" style="text;html=1;strokeColor=none;fillColor=none;align=left;verticalAlign=middle;whiteSpace=wrap;rounded=0;" vertex="1" parent="_Pdhp6oRFReHe-XerzVZ-1">
                    <mxGeometry x="-200" y="195" width="410" height="30" as="geometry"/>
                </mxCell>
                <mxCell id="SLljtoW1Gm-KegeCTVSv-2" value="" style="ellipse;whiteSpace=wrap;html=1;aspect=fixed;fontSize=18;" vertex="1" parent="_Pdhp6oRFReHe-XerzVZ-1">
                    <mxGeometry x="-320" y="170" width="80" height="80" as="geometry"/>
                </mxCell>
                <mxCell id="SLljtoW1Gm-KegeCTVSv-3" value="Remove" style="shape=rectangle;strokeColor=none;fillColor=none;linkText=;fontSize=17;fontColor=#0000ff;fontStyle=4;html=1;align=center;" vertex="1" parent="_Pdhp6oRFReHe-XerzVZ-1">
                    <mxGeometry x="220" y="195" width="150" height="30" as="geometry"/>
                </mxCell>
                <mxCell id="SLljtoW1Gm-KegeCTVSv-4" value="&lt;span style=&quot;font-size: 18px&quot;&gt;Vegan Vegi Supreme&lt;/span&gt;" style="text;html=1;strokeColor=none;fillColor=none;align=left;verticalAlign=middle;whiteSpace=wrap;rounded=0;" vertex="1" parent="_Pdhp6oRFReHe-XerzVZ-1">
                    <mxGeometry x="-200" y="95" width="410" height="30" as="geometry"/>
                </mxCell>
                <mxCell id="SLljtoW1Gm-KegeCTVSv-5" value="" style="ellipse;whiteSpace=wrap;html=1;aspect=fixed;fontSize=18;" vertex="1" parent="_Pdhp6oRFReHe-XerzVZ-1">
                    <mxGeometry x="-320" y="70" width="80" height="80" as="geometry"/>
                </mxCell>
                <mxCell id="SLljtoW1Gm-KegeCTVSv-6" value="Remove" style="shape=rectangle;strokeColor=none;fillColor=none;linkText=;fontSize=17;fontColor=#0000ff;fontStyle=4;html=1;align=center;" vertex="1" parent="_Pdhp6oRFReHe-XerzVZ-1">
                    <mxGeometry x="220" y="95" width="150" height="30" as="geometry"/>
                </mxCell>
                <mxCell id="SLljtoW1Gm-KegeCTVSv-7" value="&lt;span style=&quot;font-size: 18px&quot;&gt;£9.99&lt;/span&gt;" style="text;html=1;strokeColor=none;fillColor=none;align=left;verticalAlign=middle;whiteSpace=wrap;rounded=0;" vertex="1" parent="_Pdhp6oRFReHe-XerzVZ-1">
                    <mxGeometry x="350" y="-15" width="110" height="30" as="geometry"/>
                </mxCell>
                <mxCell id="SLljtoW1Gm-KegeCTVSv-8" value="&lt;span style=&quot;font-size: 18px&quot;&gt;£9.99&lt;/span&gt;" style="text;html=1;strokeColor=none;fillColor=none;align=left;verticalAlign=middle;whiteSpace=wrap;rounded=0;" vertex="1" parent="_Pdhp6oRFReHe-XerzVZ-1">
                    <mxGeometry x="350" y="95" width="110" height="30" as="geometry"/>
                </mxCell>
                <mxCell id="SLljtoW1Gm-KegeCTVSv-9" value="&lt;span style=&quot;font-size: 18px&quot;&gt;£6.99&lt;/span&gt;" style="text;html=1;strokeColor=none;fillColor=none;align=left;verticalAlign=middle;whiteSpace=wrap;rounded=0;" vertex="1" parent="_Pdhp6oRFReHe-XerzVZ-1">
                    <mxGeometry x="350" y="195" width="110" height="30" as="geometry"/>
                </mxCell>
                <mxCell id="SLljtoW1Gm-KegeCTVSv-10" value="&lt;font style=&quot;font-size: 14px&quot;&gt;Total (Including VAT)&lt;/font&gt;" style="text;html=1;strokeColor=none;fillColor=none;align=left;verticalAlign=middle;whiteSpace=wrap;rounded=0;" vertex="1" parent="_Pdhp6oRFReHe-XerzVZ-1">
                    <mxGeometry x="200" y="330" width="270" height="30" as="geometry"/>
                </mxCell>
                <mxCell id="SLljtoW1Gm-KegeCTVSv-12" value="&lt;font style=&quot;font-size: 24px&quot;&gt;&lt;b&gt;£ 26.97&lt;/b&gt;&lt;/font&gt;" style="text;html=1;strokeColor=none;fillColor=none;align=left;verticalAlign=middle;whiteSpace=wrap;rounded=0;" vertex="1" parent="_Pdhp6oRFReHe-XerzVZ-1">
                    <mxGeometry x="350" y="330" width="110" height="30" as="geometry"/>
                </mxCell>
                <mxCell id="2A2LEEih2nL8pZ8DM_D9-0" value="&lt;font style=&quot;font-size: 24px&quot;&gt;Checkout Now&lt;/font&gt;" style="rounded=1;html=1;shadow=0;dashed=0;whiteSpace=wrap;fontSize=10;fillColor=#E6E6E6;align=center;strokeColor=#E6E6E6;fontColor=#333333;" vertex="1" parent="_Pdhp6oRFReHe-XerzVZ-1">
                    <mxGeometry x="490" y="330" width="170" height="30" as="geometry"/>
                </mxCell>
                <mxCell id="2A2LEEih2nL8pZ8DM_D9-1" value="" style="line;strokeWidth=2;html=1;fontSize=36;" vertex="1" parent="_Pdhp6oRFReHe-XerzVZ-1">
                    <mxGeometry x="-340" y="290" width="1000" height="10" as="geometry"/>
                </mxCell>
            </root>
        </mxGraphModel>
    </diagram>
</mxfile>